<mxfile host="app.diagrams.net" modified="2022-10-28T08:44:09.090Z" agent="5.0 (Windows NT 10.0; Win64; x64) AppleWebKit/537.36 (KHTML, like Gecko) Chrome/106.0.0.0 Safari/537.36" etag="f74-XP_wvkCJgDJhVaBr" version="20.5.1" type="github">
  <diagram id="Vvtnisxk3EqNryY7Hmoh" name="Página-1">
    <mxGraphModel dx="1365" dy="536" grid="1" gridSize="10" guides="1" tooltips="1" connect="1" arrows="1" fold="1" page="1" pageScale="1" pageWidth="827" pageHeight="1169" math="0" shadow="0">
      <root>
        <mxCell id="0" />
        <mxCell id="1" parent="0" />
        <mxCell id="NBgNW_XJJ0wIsZ76KNKo-1" value="PERSONA" style="rounded=0;whiteSpace=wrap;html=1;" vertex="1" parent="1">
          <mxGeometry x="90" y="220" width="120" height="60" as="geometry" />
        </mxCell>
        <mxCell id="NBgNW_XJJ0wIsZ76KNKo-2" value="Módulo" style="rounded=0;whiteSpace=wrap;html=1;" vertex="1" parent="1">
          <mxGeometry x="470" y="220" width="120" height="60" as="geometry" />
        </mxCell>
        <mxCell id="NBgNW_XJJ0wIsZ76KNKo-3" value="libro" style="rounded=0;whiteSpace=wrap;html=1;" vertex="1" parent="1">
          <mxGeometry x="280" y="220" width="120" height="60" as="geometry" />
        </mxCell>
        <mxCell id="NBgNW_XJJ0wIsZ76KNKo-8" style="edgeStyle=none;rounded=0;orthogonalLoop=1;jettySize=auto;html=1;exitX=1;exitY=0.5;exitDx=0;exitDy=0;entryX=0;entryY=0.25;entryDx=0;entryDy=0;endArrow=none;endFill=0;" edge="1" parent="1" source="NBgNW_XJJ0wIsZ76KNKo-4" target="NBgNW_XJJ0wIsZ76KNKo-1">
          <mxGeometry relative="1" as="geometry" />
        </mxCell>
        <mxCell id="NBgNW_XJJ0wIsZ76KNKo-4" value="NombreCompleto" style="ellipse;whiteSpace=wrap;html=1;align=center;" vertex="1" parent="1">
          <mxGeometry x="-60" y="205" width="120" height="40" as="geometry" />
        </mxCell>
        <mxCell id="NBgNW_XJJ0wIsZ76KNKo-7" style="rounded=0;orthogonalLoop=1;jettySize=auto;html=1;exitX=1;exitY=0.5;exitDx=0;exitDy=0;entryX=0;entryY=0.5;entryDx=0;entryDy=0;endArrow=none;endFill=0;" edge="1" parent="1" source="NBgNW_XJJ0wIsZ76KNKo-5" target="NBgNW_XJJ0wIsZ76KNKo-1">
          <mxGeometry relative="1" as="geometry" />
        </mxCell>
        <mxCell id="NBgNW_XJJ0wIsZ76KNKo-5" value="Teléfono" style="ellipse;whiteSpace=wrap;html=1;align=center;" vertex="1" parent="1">
          <mxGeometry x="-50" y="255" width="100" height="40" as="geometry" />
        </mxCell>
        <mxCell id="NBgNW_XJJ0wIsZ76KNKo-9" style="edgeStyle=none;rounded=0;orthogonalLoop=1;jettySize=auto;html=1;exitX=1;exitY=0.5;exitDx=0;exitDy=0;entryX=0;entryY=0.75;entryDx=0;entryDy=0;endArrow=none;endFill=0;" edge="1" parent="1" source="NBgNW_XJJ0wIsZ76KNKo-6" target="NBgNW_XJJ0wIsZ76KNKo-1">
          <mxGeometry relative="1" as="geometry" />
        </mxCell>
        <mxCell id="NBgNW_XJJ0wIsZ76KNKo-6" value="FechaNacimiento" style="ellipse;whiteSpace=wrap;html=1;align=center;" vertex="1" parent="1">
          <mxGeometry x="-60" y="305" width="120" height="40" as="geometry" />
        </mxCell>
        <mxCell id="NBgNW_XJJ0wIsZ76KNKo-11" style="edgeStyle=none;rounded=0;orthogonalLoop=1;jettySize=auto;html=1;exitX=1;exitY=0.5;exitDx=0;exitDy=0;entryX=0.005;entryY=0.134;entryDx=0;entryDy=0;entryPerimeter=0;endArrow=none;endFill=0;" edge="1" parent="1" source="NBgNW_XJJ0wIsZ76KNKo-10" target="NBgNW_XJJ0wIsZ76KNKo-1">
          <mxGeometry relative="1" as="geometry" />
        </mxCell>
        <mxCell id="NBgNW_XJJ0wIsZ76KNKo-10" value="&lt;u&gt;NIF&lt;/u&gt;" style="ellipse;whiteSpace=wrap;html=1;align=center;" vertex="1" parent="1">
          <mxGeometry x="-50" y="155" width="100" height="40" as="geometry" />
        </mxCell>
        <mxCell id="NBgNW_XJJ0wIsZ76KNKo-12" value="PERSONA" style="rounded=0;whiteSpace=wrap;html=1;" vertex="1" parent="1">
          <mxGeometry x="90" y="425" width="120" height="60" as="geometry" />
        </mxCell>
        <mxCell id="NBgNW_XJJ0wIsZ76KNKo-25" value="" style="group" vertex="1" connectable="0" parent="1">
          <mxGeometry x="-30" y="418" width="120" height="30" as="geometry" />
        </mxCell>
        <mxCell id="NBgNW_XJJ0wIsZ76KNKo-23" value="" style="group" vertex="1" connectable="0" parent="NBgNW_XJJ0wIsZ76KNKo-25">
          <mxGeometry x="70" y="10" width="50" height="10" as="geometry" />
        </mxCell>
        <mxCell id="NBgNW_XJJ0wIsZ76KNKo-17" style="edgeStyle=none;rounded=0;orthogonalLoop=1;jettySize=auto;html=1;endArrow=none;endFill=0;" edge="1" parent="NBgNW_XJJ0wIsZ76KNKo-23" target="NBgNW_XJJ0wIsZ76KNKo-21">
          <mxGeometry relative="1" as="geometry">
            <mxPoint x="50" y="5" as="sourcePoint" />
            <mxPoint x="120" y="10" as="targetPoint" />
          </mxGeometry>
        </mxCell>
        <mxCell id="NBgNW_XJJ0wIsZ76KNKo-21" value="" style="ellipse;whiteSpace=wrap;html=1;aspect=fixed;" vertex="1" parent="NBgNW_XJJ0wIsZ76KNKo-23">
          <mxGeometry width="10" height="10" as="geometry" />
        </mxCell>
        <mxCell id="NBgNW_XJJ0wIsZ76KNKo-24" value="NIF" style="text;html=1;strokeColor=none;fillColor=none;align=right;verticalAlign=middle;whiteSpace=wrap;rounded=0;" vertex="1" parent="NBgNW_XJJ0wIsZ76KNKo-25">
          <mxGeometry x="8" width="60" height="30" as="geometry" />
        </mxCell>
        <mxCell id="NBgNW_XJJ0wIsZ76KNKo-28" value="" style="group" vertex="1" connectable="0" parent="1">
          <mxGeometry x="-30" y="432" width="120" height="30" as="geometry" />
        </mxCell>
        <mxCell id="NBgNW_XJJ0wIsZ76KNKo-29" value="" style="group" vertex="1" connectable="0" parent="NBgNW_XJJ0wIsZ76KNKo-28">
          <mxGeometry x="70" y="10" width="50" height="10" as="geometry" />
        </mxCell>
        <mxCell id="NBgNW_XJJ0wIsZ76KNKo-30" style="edgeStyle=none;rounded=0;orthogonalLoop=1;jettySize=auto;html=1;endArrow=none;endFill=0;" edge="1" parent="NBgNW_XJJ0wIsZ76KNKo-29" target="NBgNW_XJJ0wIsZ76KNKo-31">
          <mxGeometry relative="1" as="geometry">
            <mxPoint x="50" y="5" as="sourcePoint" />
            <mxPoint x="120" y="10" as="targetPoint" />
          </mxGeometry>
        </mxCell>
        <mxCell id="NBgNW_XJJ0wIsZ76KNKo-31" value="" style="ellipse;whiteSpace=wrap;html=1;aspect=fixed;" vertex="1" parent="NBgNW_XJJ0wIsZ76KNKo-29">
          <mxGeometry width="10" height="10" as="geometry" />
        </mxCell>
        <mxCell id="NBgNW_XJJ0wIsZ76KNKo-32" value="Nombre" style="text;html=1;strokeColor=none;fillColor=none;align=right;verticalAlign=middle;whiteSpace=wrap;rounded=0;" vertex="1" parent="NBgNW_XJJ0wIsZ76KNKo-28">
          <mxGeometry x="8" width="60" height="30" as="geometry" />
        </mxCell>
        <mxCell id="NBgNW_XJJ0wIsZ76KNKo-33" value="" style="group" vertex="1" connectable="0" parent="1">
          <mxGeometry x="-30" y="446" width="120" height="30" as="geometry" />
        </mxCell>
        <mxCell id="NBgNW_XJJ0wIsZ76KNKo-34" value="" style="group" vertex="1" connectable="0" parent="NBgNW_XJJ0wIsZ76KNKo-33">
          <mxGeometry x="70" y="10" width="50" height="10" as="geometry" />
        </mxCell>
        <mxCell id="NBgNW_XJJ0wIsZ76KNKo-35" style="edgeStyle=none;rounded=0;orthogonalLoop=1;jettySize=auto;html=1;endArrow=none;endFill=0;" edge="1" parent="NBgNW_XJJ0wIsZ76KNKo-34" target="NBgNW_XJJ0wIsZ76KNKo-36">
          <mxGeometry relative="1" as="geometry">
            <mxPoint x="50" y="5" as="sourcePoint" />
            <mxPoint x="120" y="10" as="targetPoint" />
          </mxGeometry>
        </mxCell>
        <mxCell id="NBgNW_XJJ0wIsZ76KNKo-36" value="" style="ellipse;whiteSpace=wrap;html=1;aspect=fixed;" vertex="1" parent="NBgNW_XJJ0wIsZ76KNKo-34">
          <mxGeometry width="10" height="10" as="geometry" />
        </mxCell>
        <mxCell id="NBgNW_XJJ0wIsZ76KNKo-37" value="Apellidos" style="text;html=1;strokeColor=none;fillColor=none;align=right;verticalAlign=middle;whiteSpace=wrap;rounded=0;" vertex="1" parent="NBgNW_XJJ0wIsZ76KNKo-33">
          <mxGeometry x="8" width="60" height="30" as="geometry" />
        </mxCell>
        <mxCell id="NBgNW_XJJ0wIsZ76KNKo-38" value="" style="group" vertex="1" connectable="0" parent="1">
          <mxGeometry x="-30" y="460" width="120" height="30" as="geometry" />
        </mxCell>
        <mxCell id="NBgNW_XJJ0wIsZ76KNKo-39" value="" style="group" vertex="1" connectable="0" parent="NBgNW_XJJ0wIsZ76KNKo-38">
          <mxGeometry x="70" y="10" width="50" height="10" as="geometry" />
        </mxCell>
        <mxCell id="NBgNW_XJJ0wIsZ76KNKo-40" style="edgeStyle=none;rounded=0;orthogonalLoop=1;jettySize=auto;html=1;endArrow=none;endFill=0;" edge="1" parent="NBgNW_XJJ0wIsZ76KNKo-39" target="NBgNW_XJJ0wIsZ76KNKo-41">
          <mxGeometry relative="1" as="geometry">
            <mxPoint x="50" y="5" as="sourcePoint" />
            <mxPoint x="120" y="10" as="targetPoint" />
          </mxGeometry>
        </mxCell>
        <mxCell id="NBgNW_XJJ0wIsZ76KNKo-41" value="" style="ellipse;whiteSpace=wrap;html=1;aspect=fixed;" vertex="1" parent="NBgNW_XJJ0wIsZ76KNKo-39">
          <mxGeometry width="10" height="10" as="geometry" />
        </mxCell>
        <mxCell id="NBgNW_XJJ0wIsZ76KNKo-42" value="FechaNacimiento" style="text;html=1;strokeColor=none;fillColor=none;align=right;verticalAlign=middle;whiteSpace=wrap;rounded=0;" vertex="1" parent="NBgNW_XJJ0wIsZ76KNKo-38">
          <mxGeometry x="-32" width="100" height="30" as="geometry" />
        </mxCell>
        <mxCell id="NBgNW_XJJ0wIsZ76KNKo-43" value="SOCIO" style="rounded=0;whiteSpace=wrap;html=1;" vertex="1" parent="1">
          <mxGeometry x="-200" y="220" width="120" height="60" as="geometry" />
        </mxCell>
        <mxCell id="NBgNW_XJJ0wIsZ76KNKo-44" style="edgeStyle=none;rounded=0;orthogonalLoop=1;jettySize=auto;html=1;exitX=1;exitY=0.5;exitDx=0;exitDy=0;entryX=0;entryY=0.25;entryDx=0;entryDy=0;endArrow=none;endFill=0;" edge="1" parent="1" source="NBgNW_XJJ0wIsZ76KNKo-45" target="NBgNW_XJJ0wIsZ76KNKo-43">
          <mxGeometry relative="1" as="geometry" />
        </mxCell>
        <mxCell id="NBgNW_XJJ0wIsZ76KNKo-45" value="NIF" style="ellipse;whiteSpace=wrap;html=1;align=center;fontStyle=0" vertex="1" parent="1">
          <mxGeometry x="-340" y="205" width="100" height="40" as="geometry" />
        </mxCell>
        <mxCell id="NBgNW_XJJ0wIsZ76KNKo-46" style="rounded=0;orthogonalLoop=1;jettySize=auto;html=1;exitX=1;exitY=0.5;exitDx=0;exitDy=0;entryX=0;entryY=0.5;entryDx=0;entryDy=0;endArrow=none;endFill=0;" edge="1" parent="1" source="NBgNW_XJJ0wIsZ76KNKo-47" target="NBgNW_XJJ0wIsZ76KNKo-43">
          <mxGeometry relative="1" as="geometry" />
        </mxCell>
        <mxCell id="NBgNW_XJJ0wIsZ76KNKo-47" value="NombreCompleto" style="ellipse;whiteSpace=wrap;html=1;align=center;" vertex="1" parent="1">
          <mxGeometry x="-350" y="255" width="120" height="40" as="geometry" />
        </mxCell>
        <mxCell id="NBgNW_XJJ0wIsZ76KNKo-48" style="edgeStyle=none;rounded=0;orthogonalLoop=1;jettySize=auto;html=1;exitX=1;exitY=0.5;exitDx=0;exitDy=0;entryX=0;entryY=0.75;entryDx=0;entryDy=0;endArrow=none;endFill=0;" edge="1" parent="1" source="NBgNW_XJJ0wIsZ76KNKo-49" target="NBgNW_XJJ0wIsZ76KNKo-43">
          <mxGeometry relative="1" as="geometry" />
        </mxCell>
        <mxCell id="NBgNW_XJJ0wIsZ76KNKo-49" value="FechaNacimiento" style="ellipse;whiteSpace=wrap;html=1;align=center;" vertex="1" parent="1">
          <mxGeometry x="-350" y="305" width="120" height="40" as="geometry" />
        </mxCell>
        <mxCell id="NBgNW_XJJ0wIsZ76KNKo-50" style="edgeStyle=none;rounded=0;orthogonalLoop=1;jettySize=auto;html=1;exitX=1;exitY=0.5;exitDx=0;exitDy=0;entryX=0.005;entryY=0.134;entryDx=0;entryDy=0;entryPerimeter=0;endArrow=none;endFill=0;" edge="1" parent="1" source="NBgNW_XJJ0wIsZ76KNKo-51" target="NBgNW_XJJ0wIsZ76KNKo-43">
          <mxGeometry relative="1" as="geometry" />
        </mxCell>
        <mxCell id="NBgNW_XJJ0wIsZ76KNKo-51" value="&lt;u&gt;Número&lt;/u&gt;" style="ellipse;whiteSpace=wrap;html=1;align=center;" vertex="1" parent="1">
          <mxGeometry x="-340" y="155" width="100" height="40" as="geometry" />
        </mxCell>
        <mxCell id="NBgNW_XJJ0wIsZ76KNKo-52" value="SOCIO" style="rounded=0;whiteSpace=wrap;html=1;" vertex="1" parent="1">
          <mxGeometry x="-190" y="426" width="120" height="60" as="geometry" />
        </mxCell>
        <mxCell id="NBgNW_XJJ0wIsZ76KNKo-53" value="" style="group" vertex="1" connectable="0" parent="1">
          <mxGeometry x="-310" y="396" width="120" height="30" as="geometry" />
        </mxCell>
        <mxCell id="NBgNW_XJJ0wIsZ76KNKo-54" value="" style="group" vertex="1" connectable="0" parent="NBgNW_XJJ0wIsZ76KNKo-53">
          <mxGeometry x="70" y="10" width="50" height="10" as="geometry" />
        </mxCell>
        <mxCell id="NBgNW_XJJ0wIsZ76KNKo-56" value="" style="ellipse;whiteSpace=wrap;html=1;aspect=fixed;labelBackgroundColor=default;fillColor=#000000;" vertex="1" parent="NBgNW_XJJ0wIsZ76KNKo-54">
          <mxGeometry width="10" height="10" as="geometry" />
        </mxCell>
        <mxCell id="NBgNW_XJJ0wIsZ76KNKo-57" value="Número" style="text;html=1;strokeColor=none;fillColor=none;align=right;verticalAlign=middle;whiteSpace=wrap;rounded=0;" vertex="1" parent="NBgNW_XJJ0wIsZ76KNKo-53">
          <mxGeometry x="8" width="60" height="30" as="geometry" />
        </mxCell>
        <mxCell id="NBgNW_XJJ0wIsZ76KNKo-58" value="" style="group" vertex="1" connectable="0" parent="1">
          <mxGeometry x="-310" y="425" width="120" height="30" as="geometry" />
        </mxCell>
        <mxCell id="NBgNW_XJJ0wIsZ76KNKo-59" value="" style="group" vertex="1" connectable="0" parent="NBgNW_XJJ0wIsZ76KNKo-58">
          <mxGeometry x="70" y="10" width="50" height="10" as="geometry" />
        </mxCell>
        <mxCell id="NBgNW_XJJ0wIsZ76KNKo-60" style="edgeStyle=none;rounded=0;orthogonalLoop=1;jettySize=auto;html=1;endArrow=none;endFill=0;" edge="1" parent="NBgNW_XJJ0wIsZ76KNKo-59" target="NBgNW_XJJ0wIsZ76KNKo-61">
          <mxGeometry relative="1" as="geometry">
            <mxPoint x="50" y="5" as="sourcePoint" />
            <mxPoint x="120" y="10" as="targetPoint" />
          </mxGeometry>
        </mxCell>
        <mxCell id="NBgNW_XJJ0wIsZ76KNKo-61" value="" style="ellipse;whiteSpace=wrap;html=1;aspect=fixed;strokeColor=#000000;fillColor=#000000;" vertex="1" parent="NBgNW_XJJ0wIsZ76KNKo-59">
          <mxGeometry x="2" y="2" width="6" height="6" as="geometry" />
        </mxCell>
        <mxCell id="NBgNW_XJJ0wIsZ76KNKo-62" value="NIF" style="text;html=1;strokeColor=none;fillColor=none;align=right;verticalAlign=middle;whiteSpace=wrap;rounded=0;" vertex="1" parent="NBgNW_XJJ0wIsZ76KNKo-58">
          <mxGeometry x="8" width="60" height="30" as="geometry" />
        </mxCell>
        <mxCell id="NBgNW_XJJ0wIsZ76KNKo-68" value="" style="group" vertex="1" connectable="0" parent="1">
          <mxGeometry x="-310" y="486" width="120" height="30" as="geometry" />
        </mxCell>
        <mxCell id="NBgNW_XJJ0wIsZ76KNKo-69" value="" style="group" vertex="1" connectable="0" parent="NBgNW_XJJ0wIsZ76KNKo-68">
          <mxGeometry x="70" y="10" width="50" height="10" as="geometry" />
        </mxCell>
        <mxCell id="NBgNW_XJJ0wIsZ76KNKo-71" value="" style="ellipse;whiteSpace=wrap;html=1;aspect=fixed;" vertex="1" parent="NBgNW_XJJ0wIsZ76KNKo-69">
          <mxGeometry width="10" height="10" as="geometry" />
        </mxCell>
        <mxCell id="NBgNW_XJJ0wIsZ76KNKo-72" value="FechaNacimiento" style="text;html=1;strokeColor=none;fillColor=none;align=right;verticalAlign=middle;whiteSpace=wrap;rounded=0;" vertex="1" parent="NBgNW_XJJ0wIsZ76KNKo-68">
          <mxGeometry x="-32" width="100" height="30" as="geometry" />
        </mxCell>
        <mxCell id="NBgNW_XJJ0wIsZ76KNKo-73" value="" style="endArrow=none;dashed=1;html=1;rounded=0;" edge="1" parent="1">
          <mxGeometry width="50" height="50" relative="1" as="geometry">
            <mxPoint x="-300" y="231" as="sourcePoint" />
            <mxPoint x="-280" y="231" as="targetPoint" />
          </mxGeometry>
        </mxCell>
        <mxCell id="NBgNW_XJJ0wIsZ76KNKo-77" style="edgeStyle=none;rounded=0;orthogonalLoop=1;jettySize=auto;html=1;exitX=1;exitY=0.5;exitDx=0;exitDy=0;entryX=0;entryY=0.5;entryDx=0;entryDy=0;endArrow=none;endFill=0;" edge="1" parent="1" source="NBgNW_XJJ0wIsZ76KNKo-74" target="NBgNW_XJJ0wIsZ76KNKo-47">
          <mxGeometry relative="1" as="geometry" />
        </mxCell>
        <mxCell id="NBgNW_XJJ0wIsZ76KNKo-74" value="Nombre" style="ellipse;whiteSpace=wrap;html=1;align=center;" vertex="1" parent="1">
          <mxGeometry x="-500" y="205" width="120" height="40" as="geometry" />
        </mxCell>
        <mxCell id="NBgNW_XJJ0wIsZ76KNKo-80" style="edgeStyle=none;rounded=0;orthogonalLoop=1;jettySize=auto;html=1;exitX=1;exitY=0.5;exitDx=0;exitDy=0;entryX=0;entryY=0.5;entryDx=0;entryDy=0;endArrow=none;endFill=0;" edge="1" parent="1" source="NBgNW_XJJ0wIsZ76KNKo-75" target="NBgNW_XJJ0wIsZ76KNKo-47">
          <mxGeometry relative="1" as="geometry" />
        </mxCell>
        <mxCell id="NBgNW_XJJ0wIsZ76KNKo-75" value="Apellido1" style="ellipse;whiteSpace=wrap;html=1;align=center;" vertex="1" parent="1">
          <mxGeometry x="-500" y="255" width="120" height="40" as="geometry" />
        </mxCell>
        <mxCell id="NBgNW_XJJ0wIsZ76KNKo-82" style="edgeStyle=none;rounded=0;orthogonalLoop=1;jettySize=auto;html=1;exitX=1;exitY=0.5;exitDx=0;exitDy=0;endArrow=none;endFill=0;entryX=0;entryY=0.5;entryDx=0;entryDy=0;" edge="1" parent="1" source="NBgNW_XJJ0wIsZ76KNKo-76" target="NBgNW_XJJ0wIsZ76KNKo-47">
          <mxGeometry relative="1" as="geometry">
            <mxPoint x="-363.08177775937247" y="299.51884300604786" as="targetPoint" />
          </mxGeometry>
        </mxCell>
        <mxCell id="NBgNW_XJJ0wIsZ76KNKo-76" value="Apellido2" style="ellipse;whiteSpace=wrap;html=1;align=center;" vertex="1" parent="1">
          <mxGeometry x="-500" y="305" width="120" height="40" as="geometry" />
        </mxCell>
        <mxCell id="NBgNW_XJJ0wIsZ76KNKo-70" style="edgeStyle=none;rounded=0;orthogonalLoop=1;jettySize=auto;html=1;endArrow=none;endFill=0;entryX=-0.006;entryY=0.9;entryDx=0;entryDy=0;entryPerimeter=0;exitX=1;exitY=0.5;exitDx=0;exitDy=0;" edge="1" parent="1" target="NBgNW_XJJ0wIsZ76KNKo-52" source="NBgNW_XJJ0wIsZ76KNKo-71">
          <mxGeometry relative="1" as="geometry">
            <mxPoint x="-230" y="500" as="sourcePoint" />
            <mxPoint x="-120" y="506" as="targetPoint" />
          </mxGeometry>
        </mxCell>
        <mxCell id="NBgNW_XJJ0wIsZ76KNKo-55" style="edgeStyle=none;rounded=0;orthogonalLoop=1;jettySize=auto;html=1;endArrow=none;endFill=0;exitX=1;exitY=0.5;exitDx=0;exitDy=0;entryX=-0.006;entryY=0.094;entryDx=0;entryDy=0;entryPerimeter=0;" edge="1" parent="1" target="NBgNW_XJJ0wIsZ76KNKo-52" source="NBgNW_XJJ0wIsZ76KNKo-56">
          <mxGeometry relative="1" as="geometry">
            <mxPoint x="-190" y="411" as="sourcePoint" />
            <mxPoint x="-190" y="440" as="targetPoint" />
          </mxGeometry>
        </mxCell>
        <mxCell id="NBgNW_XJJ0wIsZ76KNKo-85" value="" style="edgeStyle=none;rounded=0;orthogonalLoop=1;jettySize=auto;html=1;endArrow=none;endFill=0;exitX=1;exitY=0.5;exitDx=0;exitDy=0;entryX=0.008;entryY=0.607;entryDx=0;entryDy=0;entryPerimeter=0;" edge="1" parent="1" source="NBgNW_XJJ0wIsZ76KNKo-84" target="NBgNW_XJJ0wIsZ76KNKo-52">
          <mxGeometry relative="1" as="geometry" />
        </mxCell>
        <mxCell id="NBgNW_XJJ0wIsZ76KNKo-84" value="NombreCompleto" style="ellipse;whiteSpace=wrap;html=1;align=center;" vertex="1" parent="1">
          <mxGeometry x="-350" y="448" width="120" height="40" as="geometry" />
        </mxCell>
        <mxCell id="NBgNW_XJJ0wIsZ76KNKo-65" style="edgeStyle=none;rounded=0;orthogonalLoop=1;jettySize=auto;html=1;endArrow=none;endFill=0;entryX=0.045;entryY=0.31;entryDx=0;entryDy=0;entryPerimeter=0;exitX=1;exitY=0.5;exitDx=0;exitDy=0;" edge="1" parent="1" target="NBgNW_XJJ0wIsZ76KNKo-84" source="NBgNW_XJJ0wIsZ76KNKo-66">
          <mxGeometry relative="1" as="geometry">
            <mxPoint x="-340" y="448" as="sourcePoint" />
            <mxPoint x="-270" y="453" as="targetPoint" />
          </mxGeometry>
        </mxCell>
        <mxCell id="NBgNW_XJJ0wIsZ76KNKo-90" value="" style="group" vertex="1" connectable="0" parent="1">
          <mxGeometry x="-460" y="470" width="120" height="30" as="geometry" />
        </mxCell>
        <mxCell id="NBgNW_XJJ0wIsZ76KNKo-66" value="" style="ellipse;whiteSpace=wrap;html=1;aspect=fixed;" vertex="1" parent="NBgNW_XJJ0wIsZ76KNKo-90">
          <mxGeometry x="70" y="-25" width="10" height="10" as="geometry" />
        </mxCell>
        <mxCell id="NBgNW_XJJ0wIsZ76KNKo-67" value="Nombre" style="text;html=1;strokeColor=none;fillColor=none;align=right;verticalAlign=middle;whiteSpace=wrap;rounded=0;" vertex="1" parent="NBgNW_XJJ0wIsZ76KNKo-90">
          <mxGeometry x="-40" y="-35" width="108" height="30" as="geometry" />
        </mxCell>
        <mxCell id="NBgNW_XJJ0wIsZ76KNKo-88" value="" style="ellipse;whiteSpace=wrap;html=1;aspect=fixed;" vertex="1" parent="NBgNW_XJJ0wIsZ76KNKo-90">
          <mxGeometry x="70" y="-7" width="10" height="10" as="geometry" />
        </mxCell>
        <mxCell id="NBgNW_XJJ0wIsZ76KNKo-89" value="Apellido1" style="text;html=1;strokeColor=none;fillColor=none;align=right;verticalAlign=middle;whiteSpace=wrap;rounded=0;" vertex="1" parent="NBgNW_XJJ0wIsZ76KNKo-90">
          <mxGeometry x="-40" y="-17" width="108" height="30" as="geometry" />
        </mxCell>
        <mxCell id="NBgNW_XJJ0wIsZ76KNKo-92" value="" style="ellipse;whiteSpace=wrap;html=1;aspect=fixed;" vertex="1" parent="NBgNW_XJJ0wIsZ76KNKo-90">
          <mxGeometry x="70" y="13" width="10" height="10" as="geometry" />
        </mxCell>
        <mxCell id="NBgNW_XJJ0wIsZ76KNKo-93" value="Apellido2" style="text;html=1;strokeColor=none;fillColor=none;align=right;verticalAlign=middle;whiteSpace=wrap;rounded=0;" vertex="1" parent="NBgNW_XJJ0wIsZ76KNKo-90">
          <mxGeometry x="-40" y="3" width="108" height="30" as="geometry" />
        </mxCell>
        <mxCell id="NBgNW_XJJ0wIsZ76KNKo-94" style="edgeStyle=none;rounded=0;orthogonalLoop=1;jettySize=auto;html=1;exitX=1;exitY=0.5;exitDx=0;exitDy=0;entryX=0;entryY=0.5;entryDx=0;entryDy=0;endArrow=none;endFill=0;" edge="1" parent="1" source="NBgNW_XJJ0wIsZ76KNKo-88" target="NBgNW_XJJ0wIsZ76KNKo-84">
          <mxGeometry relative="1" as="geometry" />
        </mxCell>
        <mxCell id="NBgNW_XJJ0wIsZ76KNKo-95" style="edgeStyle=none;rounded=0;orthogonalLoop=1;jettySize=auto;html=1;exitX=1;exitY=0.5;exitDx=0;exitDy=0;entryX=0.035;entryY=0.68;entryDx=0;entryDy=0;entryPerimeter=0;endArrow=none;endFill=0;" edge="1" parent="1" source="NBgNW_XJJ0wIsZ76KNKo-92" target="NBgNW_XJJ0wIsZ76KNKo-84">
          <mxGeometry relative="1" as="geometry" />
        </mxCell>
      </root>
    </mxGraphModel>
  </diagram>
</mxfile>
